<svg xmlns="http://www.w3.org/2000/svg" width="207.882" height="217.512" viewBox="0 0 207.882 217.512"><g transform="translate(-1780.055 -521.688)"><rect width="193.463" height="25.689" transform="translate(1787.257 711.511)" fill="none" stroke="#fff" stroke-miterlimit="10" stroke-width="4"/><path d="M1985.937,564.972v16.9H1782.055V564.957L1883.3,523.845Z" fill="none" stroke="#fff" stroke-miterlimit="10" stroke-width="4"/><rect width="161.733" height="129.636" transform="translate(1802.893 581.874)" fill="none" stroke="#fff" stroke-miterlimit="10" stroke-width="4"/><path d="M1882,659.141q-3.341,16.818-6.739,33.629c-5.373-29.218-10.848-58.422-16.246-87.636-2.786-.01-5.57,0-8.355-.006q0,12.975,0,25.949-5.708,0-11.413,0,0-18.224,0-36.447c.012-.909-.04-1.82.042-2.729,10.134.025,20.268.008,30.4.011,3.547,19.1,7.018,38.213,10.535,57.319C1880.8,652.535,1881.494,655.829,1882,659.141Z" fill="#fff"/><path d="M1928.038,631.079q-5.815,0-11.63,0,0-12.975,0-25.951-4.757,0-9.51,0-9.064,47.9-18.131,95.809-5.816-.008-11.633,0,10.676-54.5,21.367-108.99c9.842-.077,19.689-.013,29.535-.033Q1928.043,611.5,1928.038,631.079Z" fill="#fff"/><path d="M1958.27,662.688q.025,19.125.006,38.249-6.4,0-12.811,0,0-17.874,0-35.75c-.029-2.053.057-4.111-.042-6.158-1.269-2.355-2.611-4.676-3.91-7.017q-19.173,0-38.349,0c.765-4.25,1.553-8.495,2.32-12.745q19.989-.012,39.979,0,.006-10.177,0-20.352a35.581,35.581,0,0,0-.794-9.215,8.831,8.831,0,0,0-1.788-3.676,2.267,2.267,0,0,0-1.721-.892q-4.242,0-8.485,0,0-6.612,0-13.223a34.168,34.168,0,0,1,10.365,1.53,21.721,21.721,0,0,1,9.34,5.888,23.346,23.346,0,0,1,5.883,13.791c.023,13.723,0,27.444.008,41.165-1.147-.094-2.429-.449-3.5.128-.023.092-.067.276-.091.37A28.285,28.285,0,0,1,1958.27,662.688Z" fill="#fff"/><path d="M1822.079,652.5q0,17.4,0,34.8h11.147q0,7.092,0,14.183-12,0-24,0,0-54.532,0-109.068,12,.009,24,.006-.006,6.594,0,13.189-5.572.008-11.143,0-.015,17.066,0,34.132h37.637q1.4,6.376,2.792,12.75Q1842.292,652.5,1822.079,652.5Z" fill="#fff"/><path d="M1850.659,659.052q-.006,20.943,0,41.885h-11.411q0-20.943,0-41.885Q1844.954,659.046,1850.659,659.052Z" fill="#fff"/><path d="M1928.038,659.048q-.006,20.945,0,41.889h-11.628q0-20.943,0-41.887Q1922.221,659.047,1928.038,659.048Z" fill="#fff"/><path d="M1873.2,700.937q-9.182,0-18.362,0-.006-7.065,0-14.13c4.958.006,9.917-.006,14.876.006Q1871.453,693.875,1873.2,700.937Z" fill="#fff"/><path d="M1912.016,700.934q-9.194.008-18.383,0,1.51-7.062,3.024-14.122,7.564-.015,15.128,0Q1911.88,693.872,1912.016,700.934Z" fill="#fff"/><path d="M1941.53,686.809q0,7.063,0,14.128h-8.851q0-7.065,0-14.128Q1937.1,686.812,1941.53,686.809Z" fill="#fff"/><path d="M1799.759,730.8a.3.3,0,0,1-.242-.146.574.574,0,0,1-.1-.341V718.384a.576.576,0,0,1,.1-.341.3.3,0,0,1,.242-.146h5.782v2.922h-4.056v2.07h4.056v2.8h-4.056v2.192h4.056V730.8Z" fill="#fff"/><path d="M1808.994,730.317a.574.574,0,0,1-.1.341.294.294,0,0,1-.242.146h-1.381a.293.293,0,0,1-.241-.146.574.574,0,0,1-.1-.341V718.384a.576.576,0,0,1,.1-.341.3.3,0,0,1,.241-.146h1.916l4.126,8.524v-8.037a.576.576,0,0,1,.1-.341.3.3,0,0,1,.242-.146h1.381a.3.3,0,0,1,.241.146.576.576,0,0,1,.1.341v11.933a.574.574,0,0,1-.1.341.293.293,0,0,1-.241.146h-1.985l-4.056-8.426Z" fill="#fff"/><path d="M1820.386,723.62h2.761a.3.3,0,0,1,.242.146.576.576,0,0,1,.1.341v3.556a4.207,4.207,0,0,1-.285,1.717,2.18,2.18,0,0,1-.76.937,2.571,2.571,0,0,1-1.087.4,9.319,9.319,0,0,1-2.512,0,2.6,2.6,0,0,1-1.07-.39,2.06,2.06,0,0,1-.742-.937,4.422,4.422,0,0,1-.276-1.729v-6.6a4.418,4.418,0,0,1,.276-1.729,2.15,2.15,0,0,1,.742-.95,2.5,2.5,0,0,1,1.07-.4,9.319,9.319,0,0,1,2.512,0,2.483,2.483,0,0,1,1.087.414,2.27,2.27,0,0,1,.76.95,4.2,4.2,0,0,1,.285,1.717v.73a.574.574,0,0,1-.1.341.3.3,0,0,1-.242.147h-1.381q-.345,0-.345-.488V721.5a.491.491,0,0,0-.112-.328.734.734,0,0,0-.293-.208,1.911,1.911,0,0,0-.423-.109,3.267,3.267,0,0,0-.483-.037,2.752,2.752,0,0,0-.881.134.533.533,0,0,0-.4.548v5.723a.5.5,0,0,0,.112.329.738.738,0,0,0,.294.207,1.539,1.539,0,0,0,.4.1,4.381,4.381,0,0,0,.467.024q.242,0,.483-.024a1.564,1.564,0,0,0,.423-.1.741.741,0,0,0,.293-.207.493.493,0,0,0,.112-.329v-1.047h-1.035Z" fill="#fff"/><path d="M1826.841,718.043a.575.575,0,0,1,.1.341v11.933a.574.574,0,0,1-.1.341.294.294,0,0,1-.242.146h-1.38a.294.294,0,0,1-.242-.146.574.574,0,0,1-.1-.341V718.384a.575.575,0,0,1,.1-.341.3.3,0,0,1,.242-.146h1.38A.3.3,0,0,1,1826.841,718.043Z" fill="#fff"/><path d="M1830.4,730.317a.574.574,0,0,1-.1.341.294.294,0,0,1-.242.146h-1.38a.3.3,0,0,1-.242-.146.574.574,0,0,1-.1-.341V718.384a.576.576,0,0,1,.1-.341.3.3,0,0,1,.242-.146h1.915l4.126,8.524v-8.037a.576.576,0,0,1,.1-.341.3.3,0,0,1,.242-.146h1.381a.3.3,0,0,1,.241.146.569.569,0,0,1,.1.341v11.933a.567.567,0,0,1-.1.341.293.293,0,0,1-.241.146h-1.985l-4.056-8.426Z" fill="#fff"/><path d="M1838.509,730.8a.293.293,0,0,1-.241-.146.568.568,0,0,1-.1-.341V718.384a.57.57,0,0,1,.1-.341.3.3,0,0,1,.241-.146h5.782v2.922h-4.056v2.07h4.056v2.8h-4.056v2.192h4.056V730.8Z" fill="#fff"/><path d="M1846.018,730.8a.294.294,0,0,1-.242-.146.574.574,0,0,1-.1-.341V718.384a.576.576,0,0,1,.1-.341.3.3,0,0,1,.242-.146h5.782v2.922h-4.056v2.07h4.056v2.8h-4.056v2.192h4.056V730.8Z" fill="#fff"/><path d="M1855.252,725.934v4.383a.574.574,0,0,1-.1.341.3.3,0,0,1-.242.146h-1.381a.3.3,0,0,1-.242-.146.573.573,0,0,1-.1-.341V718.384a.575.575,0,0,1,.1-.341.3.3,0,0,1,.242-.146h3.59a2.531,2.531,0,0,1,1.364.365,3.275,3.275,0,0,1,.984.95,4.341,4.341,0,0,1,.595,1.327,5.75,5.75,0,0,1,.2,1.5,4.616,4.616,0,0,1-.587,2.338,2.785,2.785,0,0,1-1.778,1.339q.69,1.292,1.364,2.558t1.363,2.532h-2.209a.394.394,0,0,1-.319-.158,1.723,1.723,0,0,1-.216-.329l-2.261-4.383Zm2.65-3.142a1.149,1.149,0,0,0,.285-.755,1.335,1.335,0,0,0-.294-.84,1.006,1.006,0,0,0-.846-.378h-1.8v2.314h1.8A1.052,1.052,0,0,0,1857.9,722.792Z" fill="#fff"/><path d="M1863.52,718.043a.576.576,0,0,1,.1.341v11.933a.574.574,0,0,1-.1.341.294.294,0,0,1-.242.146h-1.38a.294.294,0,0,1-.242-.146.574.574,0,0,1-.1-.341V718.384a.576.576,0,0,1,.1-.341.3.3,0,0,1,.242-.146h1.38A.3.3,0,0,1,1863.52,718.043Z" fill="#fff"/><path d="M1867.076,730.317a.574.574,0,0,1-.1.341.293.293,0,0,1-.241.146h-1.381a.294.294,0,0,1-.242-.146.573.573,0,0,1-.1-.341V718.384a.575.575,0,0,1,.1-.341.3.3,0,0,1,.242-.146h1.916l4.125,8.524v-8.037a.576.576,0,0,1,.1-.341.3.3,0,0,1,.242-.146h1.381a.3.3,0,0,1,.242.146.576.576,0,0,1,.1.341v11.933a.574.574,0,0,1-.1.341.294.294,0,0,1-.242.146h-1.985l-4.056-8.426Z" fill="#fff"/><path d="M1878.468,723.62h2.761a.3.3,0,0,1,.242.146.576.576,0,0,1,.1.341v3.556a4.207,4.207,0,0,1-.285,1.717,2.18,2.18,0,0,1-.76.937,2.571,2.571,0,0,1-1.087.4,9.312,9.312,0,0,1-2.511,0,2.6,2.6,0,0,1-1.071-.39,2.06,2.06,0,0,1-.742-.937,4.422,4.422,0,0,1-.276-1.729v-6.6a4.418,4.418,0,0,1,.276-1.729,2.15,2.15,0,0,1,.742-.95,2.5,2.5,0,0,1,1.071-.4,9.312,9.312,0,0,1,2.511,0,2.484,2.484,0,0,1,1.087.414,2.27,2.27,0,0,1,.76.95,4.2,4.2,0,0,1,.285,1.717v.73a.573.573,0,0,1-.1.341.294.294,0,0,1-.242.147h-1.38q-.346,0-.346-.488V721.5a.491.491,0,0,0-.112-.328.727.727,0,0,0-.293-.208,1.911,1.911,0,0,0-.423-.109,3.267,3.267,0,0,0-.483-.037,2.752,2.752,0,0,0-.881.134.533.533,0,0,0-.4.548v5.723a.494.494,0,0,0,.113.329.728.728,0,0,0,.293.207,1.539,1.539,0,0,0,.406.1,4.349,4.349,0,0,0,.466.024q.242,0,.483-.024a1.564,1.564,0,0,0,.423-.1.734.734,0,0,0,.293-.207.494.494,0,0,0,.112-.329v-1.047h-1.035Z" fill="#fff"/><path d="M1889.618,726.08a.294.294,0,0,1,.242-.146h1.38a.293.293,0,0,1,.242.146.574.574,0,0,1,.1.341v.755a4.458,4.458,0,0,1-.285,1.692,3.074,3.074,0,0,1-.751,1.121,2.908,2.908,0,0,1-1.053.621,3.857,3.857,0,0,1-2.416,0,2.818,2.818,0,0,1-1.045-.621,3.041,3.041,0,0,1-.733-1.121,4.588,4.588,0,0,1-.276-1.692V721.55a4.593,4.593,0,0,1,.276-1.693,3.037,3.037,0,0,1,.733-1.12,2.817,2.817,0,0,1,1.045-.621,3.839,3.839,0,0,1,2.416,0,2.907,2.907,0,0,1,1.053.621,3.07,3.07,0,0,1,.751,1.12,4.463,4.463,0,0,1,.285,1.693v.731a.573.573,0,0,1-.1.34.294.294,0,0,1-.242.147h-1.38a.3.3,0,0,1-.242-.147.572.572,0,0,1-.1-.34v-.366a.945.945,0,0,0-.379-.828,1.415,1.415,0,0,0-1.657,0,.943.943,0,0,0-.38.828v4.871a.935.935,0,0,0,.38.84,1.468,1.468,0,0,0,1.657,0,.937.937,0,0,0,.379-.84v-.365A.573.573,0,0,1,1889.618,726.08Z" fill="#fff"/><path d="M1899.249,729.282a2.373,2.373,0,0,1-.725.987,2.323,2.323,0,0,1-1.052.438,7.793,7.793,0,0,1-1.243.1,7.586,7.586,0,0,1-1.243-.1,2.184,2.184,0,0,1-1.752-1.425,4.648,4.648,0,0,1-.267-1.741v-6.356a4.658,4.658,0,0,1,.267-1.742,2.4,2.4,0,0,1,.716-1,2.24,2.24,0,0,1,1.036-.451,7.586,7.586,0,0,1,1.243-.1,6.864,6.864,0,0,1,1.243.11,2.43,2.43,0,0,1,1.052.45,2.37,2.37,0,0,1,.725.986,4.519,4.519,0,0,1,.277,1.742v6.356A4.509,4.509,0,0,1,1899.249,729.282Zm-2.157-8.365a2.726,2.726,0,0,0-.863-.122,2.584,2.584,0,0,0-.837.122.491.491,0,0,0-.354.511V727.3a.472.472,0,0,0,.354.5,3.155,3.155,0,0,0,1.691-.013.477.477,0,0,0,.371-.487v-5.869A.492.492,0,0,0,1897.092,720.917Z" fill="#fff"/><path d="M1902.978,730.317a.574.574,0,0,1-.1.341.293.293,0,0,1-.241.146h-1.381a.294.294,0,0,1-.242-.146.574.574,0,0,1-.1-.341V718.384a.576.576,0,0,1,.1-.341.3.3,0,0,1,.242-.146h1.916l4.125,8.524v-8.037a.576.576,0,0,1,.1-.341.3.3,0,0,1,.242-.146h1.381a.3.3,0,0,1,.242.146.576.576,0,0,1,.1.341v11.933a.574.574,0,0,1-.1.341.294.294,0,0,1-.242.146h-1.985l-4.056-8.426Z" fill="#fff"/><path d="M1916.346,728.941a3,3,0,0,1-.708,1.06,2.743,2.743,0,0,1-1.018.609,3.752,3.752,0,0,1-1.2.194,4.8,4.8,0,0,1-1.329-.194,4.443,4.443,0,0,1-1.225-.561l.587-2.386a3.721,3.721,0,0,0,.949.414,3.584,3.584,0,0,0,.967.146,1.507,1.507,0,0,0,.837-.219.782.782,0,0,0,.336-.707,1.235,1.235,0,0,0-.293-.815,5.6,5.6,0,0,0-.734-.719q-.439-.364-.958-.755a6.153,6.153,0,0,1-.958-.9,4.673,4.673,0,0,1-.733-1.181,3.885,3.885,0,0,1-.294-1.571,4.334,4.334,0,0,1,.259-1.583,2.915,2.915,0,0,1,.7-1.071,2.755,2.755,0,0,1,1.019-.609,3.724,3.724,0,0,1,1.2-.2,4.42,4.42,0,0,1,1.321.207,6.092,6.092,0,0,1,1.251.548l-.587,2.411a4.01,4.01,0,0,0-.94-.426,3.223,3.223,0,0,0-.958-.159,1.487,1.487,0,0,0-.846.232.8.8,0,0,0-.345.718,1.207,1.207,0,0,0,.293.792,5.087,5.087,0,0,0,.734.706q.439.352.958.743a6.109,6.109,0,0,1,.958.9,4.6,4.6,0,0,1,.733,1.193,4.041,4.041,0,0,1,.294,1.608A4.105,4.105,0,0,1,1916.346,728.941Z" fill="#fff"/><path d="M1924.1,728.673a3.453,3.453,0,0,1-.751,1.242,2.728,2.728,0,0,1-1.053.682,3.555,3.555,0,0,1-1.191.207,3.622,3.622,0,0,1-1.32-.231,2.508,2.508,0,0,1-1.036-.767,3.787,3.787,0,0,1-.681-1.425,8.425,8.425,0,0,1-.242-2.179v-7.818a.569.569,0,0,1,.1-.341.3.3,0,0,1,.241-.146h1.381a.3.3,0,0,1,.242.146.576.576,0,0,1,.1.341v7.6a6.162,6.162,0,0,0,.052.841,2.014,2.014,0,0,0,.181.633,1,1,0,0,0,.363.4,1.14,1.14,0,0,0,.612.146.953.953,0,0,0,.967-.536,3.7,3.7,0,0,0,.242-1.486v-7.6a.576.576,0,0,1,.1-.341.3.3,0,0,1,.242-.146h1.381a.3.3,0,0,1,.241.146.576.576,0,0,1,.1.341v8.426A5.365,5.365,0,0,1,1924.1,728.673Z" fill="#fff"/><path d="M1930.422,727.882V730.8h-4.315a.294.294,0,0,1-.242-.146.574.574,0,0,1-.1-.341V718.384a.576.576,0,0,1,.1-.341.3.3,0,0,1,.242-.146h1.381a.3.3,0,0,1,.241.146.57.57,0,0,1,.1.341v9.5Z" fill="#fff"/><path d="M1933.874,730.317a.574.574,0,0,1-.1.341.294.294,0,0,1-.242.146h-1.381a.293.293,0,0,1-.241-.146.568.568,0,0,1-.1-.341v-9.668h-2.071a.3.3,0,0,1-.242-.146.576.576,0,0,1-.1-.341v-1.778a.576.576,0,0,1,.1-.341.3.3,0,0,1,.242-.146h6.213a.3.3,0,0,1,.242.146.576.576,0,0,1,.1.341v1.778a.576.576,0,0,1-.1.341.3.3,0,0,1-.242.146h-2.071Z" fill="#fff"/><path d="M1943.782,730.658a.294.294,0,0,1-.242.146h-1.381a.293.293,0,0,1-.241-.146.574.574,0,0,1-.1-.341v-3.409H1939.4v3.409a.574.574,0,0,1-.1.341.293.293,0,0,1-.241.146h-1.381a.294.294,0,0,1-.242-.146.573.573,0,0,1-.1-.341v-8.4a5.154,5.154,0,0,1,.276-1.778,3.723,3.723,0,0,1,.733-1.254,2.924,2.924,0,0,1,1.044-.742,3.117,3.117,0,0,1,1.209-.244,3.178,3.178,0,0,1,1.217.244,2.905,2.905,0,0,1,1.053.742,3.858,3.858,0,0,1,.742,1.254,5.03,5.03,0,0,1,.284,1.778v8.4A.574.574,0,0,1,1943.782,730.658Zm-1.968-6.673v-2a1.033,1.033,0,0,0-.388-.864,1.332,1.332,0,0,0-.837-.305,1.31,1.31,0,0,0-.812.293,1.036,1.036,0,0,0-.379.876v2Z" fill="#fff"/><path d="M1947.338,730.317a.574.574,0,0,1-.1.341.294.294,0,0,1-.242.146h-1.381a.293.293,0,0,1-.241-.146.574.574,0,0,1-.1-.341V718.384a.576.576,0,0,1,.1-.341.3.3,0,0,1,.241-.146h1.916l4.126,8.524v-8.037a.576.576,0,0,1,.1-.341.3.3,0,0,1,.242-.146h1.381a.3.3,0,0,1,.241.146.576.576,0,0,1,.1.341v11.933a.574.574,0,0,1-.1.341.293.293,0,0,1-.241.146h-1.985l-4.056-8.426Z" fill="#fff"/><path d="M1959.247,730.317a.574.574,0,0,1-.1.341.3.3,0,0,1-.242.146h-1.381a.293.293,0,0,1-.241-.146.574.574,0,0,1-.1-.341v-9.668H1955.1a.3.3,0,0,1-.242-.146.575.575,0,0,1-.1-.341v-1.778a.575.575,0,0,1,.1-.341.3.3,0,0,1,.242-.146h6.214a.3.3,0,0,1,.241.146.576.576,0,0,1,.1.341v1.778a.576.576,0,0,1-.1.341.3.3,0,0,1-.241.146h-2.072Z" fill="#fff"/><path d="M1968.3,728.941a3.012,3.012,0,0,1-.708,1.06,2.751,2.751,0,0,1-1.018.609,3.76,3.76,0,0,1-1.2.194,4.8,4.8,0,0,1-1.329-.194,4.428,4.428,0,0,1-1.225-.561l.586-2.386a3.727,3.727,0,0,0,.95.414,3.583,3.583,0,0,0,.966.146,1.5,1.5,0,0,0,.837-.219.78.78,0,0,0,.337-.707,1.24,1.24,0,0,0-.293-.815,5.653,5.653,0,0,0-.734-.719q-.439-.364-.958-.755a6.158,6.158,0,0,1-.958-.9,4.669,4.669,0,0,1-.733-1.181,3.883,3.883,0,0,1-.294-1.571,4.314,4.314,0,0,1,.259-1.583,2.915,2.915,0,0,1,.7-1.071,2.76,2.76,0,0,1,1.018-.609,3.734,3.734,0,0,1,1.2-.2,4.419,4.419,0,0,1,1.32.207,6.075,6.075,0,0,1,1.252.548l-.587,2.411a4.015,4.015,0,0,0-.941-.426,3.213,3.213,0,0,0-.958-.159,1.486,1.486,0,0,0-.845.232.8.8,0,0,0-.346.718,1.209,1.209,0,0,0,.294.792,5.083,5.083,0,0,0,.733.706q.441.352.958.743a6.02,6.02,0,0,1,.958.9,4.611,4.611,0,0,1,.734,1.193,4.044,4.044,0,0,1,.293,1.608A4.109,4.109,0,0,1,1968.3,728.941Z" fill="#fff"/><path d="M1832.921,575.6a.676.676,0,0,1-.525.261h-3a.672.672,0,0,1-.524-.261.9.9,0,0,1-.225-.607v-6.07H1823.4V575a.9.9,0,0,1-.225.607.676.676,0,0,1-.525.261h-3a.676.676,0,0,1-.525-.261.9.9,0,0,1-.225-.607v-14.96a7.712,7.712,0,0,1,.6-3.165,6.385,6.385,0,0,1,3.861-3.556,8.089,8.089,0,0,1,2.623-.434,8.263,8.263,0,0,1,2.643.434,6.482,6.482,0,0,1,2.286,1.322,6.71,6.71,0,0,1,1.612,2.234,7.516,7.516,0,0,1,.619,3.165V575A.9.9,0,0,1,1832.921,575.6Zm-4.273-11.881v-3.556a1.725,1.725,0,0,0-.844-1.539,3.294,3.294,0,0,0-1.818-.542,3.241,3.241,0,0,0-1.761.52,1.724,1.724,0,0,0-.825,1.561v3.556Z" fill="#fff"/><path d="M1846.265,570.662v5.2h-9.371a.676.676,0,0,1-.525-.261.9.9,0,0,1-.225-.607V553.75a.9.9,0,0,1,.225-.607.678.678,0,0,1,.525-.26h3a.678.678,0,0,1,.525.26.9.9,0,0,1,.225.607v16.912Z" fill="#fff"/><path d="M1853.761,575.866a.676.676,0,0,1-.525-.261.9.9,0,0,1-.225-.607V553.75a.9.9,0,0,1,.225-.607.678.678,0,0,1,.525-.26h12.557v5.2h-8.809v3.686h8.809v4.986h-8.809v3.9h8.809v5.2Z" fill="#fff"/><path d="M1883.335,575.6a.676.676,0,0,1-.525.261h-3a.676.676,0,0,1-.524-.261.9.9,0,0,1-.225-.607v-6.07h-5.248V575a.9.9,0,0,1-.225.607.676.676,0,0,1-.525.261h-3a.676.676,0,0,1-.525-.261.9.9,0,0,1-.225-.607v-14.96a7.71,7.71,0,0,1,.6-3.165,6.385,6.385,0,0,1,3.861-3.556,8.089,8.089,0,0,1,2.623-.434,8.262,8.262,0,0,1,2.643.434,6.494,6.494,0,0,1,2.287,1.322,6.721,6.721,0,0,1,1.611,2.234,7.5,7.5,0,0,1,.619,3.165V575A.9.9,0,0,1,1883.335,575.6Zm-4.273-11.881v-3.556a1.725,1.725,0,0,0-.844-1.539,3.294,3.294,0,0,0-1.818-.542,3.243,3.243,0,0,0-1.761.52,1.723,1.723,0,0,0-.825,1.561v3.556Z" fill="#fff"/><path d="M1896.379,575.6a1.581,1.581,0,0,1-.262-.607l-3.6-16.911L1890.607,575a1.157,1.157,0,0,1-.244.607.624.624,0,0,1-.506.261H1886l2.512-22.116a1.153,1.153,0,0,1,.243-.607.626.626,0,0,1,.506-.26h6.072a.577.577,0,0,1,.488.26,1.608,1.608,0,0,1,.262.607l3.523,16.435,3.524-16.435a1.61,1.61,0,0,1,.262-.607.577.577,0,0,1,.487-.26h6.11a.624.624,0,0,1,.506.26,1.146,1.146,0,0,1,.244.607l2.511,22.116h-3.9a.623.623,0,0,1-.506-.261,1.148,1.148,0,0,1-.244-.607l-1.911-16.911-3.6,16.911a1.6,1.6,0,0,1-.262.607.574.574,0,0,1-.487.261h-5.473A.574.574,0,0,1,1896.379,575.6Z" fill="#fff"/><path d="M1929.7,575.6a.674.674,0,0,1-.524.261h-3a.676.676,0,0,1-.525-.261.9.9,0,0,1-.225-.607v-6.07h-5.247V575a.9.9,0,0,1-.225.607.676.676,0,0,1-.525.261h-3a.674.674,0,0,1-.524-.261.9.9,0,0,1-.225-.607v-14.96a7.712,7.712,0,0,1,.6-3.165,6.387,6.387,0,0,1,3.86-3.556,8.1,8.1,0,0,1,2.624-.434,8.263,8.263,0,0,1,2.643.434,6.482,6.482,0,0,1,2.286,1.322,6.737,6.737,0,0,1,1.612,2.234,7.516,7.516,0,0,1,.618,3.165V575A.9.9,0,0,1,1929.7,575.6Zm-4.273-11.881v-3.556a1.726,1.726,0,0,0-.843-1.539,3.294,3.294,0,0,0-1.818-.542,3.244,3.244,0,0,0-1.762.52,1.725,1.725,0,0,0-.824,1.561v3.556Z" fill="#fff"/><path d="M1937.423,567.193V575a.9.9,0,0,1-.225.607.676.676,0,0,1-.525.261h-3a.676.676,0,0,1-.525-.261.9.9,0,0,1-.225-.607V553.75a.9.9,0,0,1,.225-.607.678.678,0,0,1,.525-.26h7.8a6.423,6.423,0,0,1,2.961.651,6.664,6.664,0,0,1,2.137,1.691,7.156,7.156,0,0,1,1.293,2.363,8.573,8.573,0,0,1,.431,2.667,7.08,7.08,0,0,1-1.275,4.163,6.057,6.057,0,0,1-3.86,2.385q1.5,2.3,2.961,4.553t2.961,4.51h-4.8a.939.939,0,0,1-.693-.282,3.215,3.215,0,0,1-.469-.586l-4.91-7.8Zm5.753-5.594a1.849,1.849,0,0,0,.619-1.344,2.125,2.125,0,0,0-.637-1.5,2.411,2.411,0,0,0-1.837-.672h-3.9v4.119h3.9A2.546,2.546,0,0,0,1943.176,561.6Z" fill="#fff"/></g></svg>