<svg id="Layer_1" data-name="Layer 1" xmlns="http://www.w3.org/2000/svg" viewBox="0 0 205.88 215.43"><defs><style>.cls-1{fill:none;stroke:#FFF;stroke-miterlimit:10;stroke-width:2px;}.cls-2{fill:#FFF;}</style></defs><title>logo</title><rect class="cls-1" x="6.2" y="188.74" width="193.46" height="25.69"/><path class="cls-1" d="M205.88,43.28v16.9H2V43.27L103.24,2.16Z" transform="translate(-1 -1.08)"/><rect class="cls-1" x="21.84" y="59.11" width="161.73" height="129.64"/><path class="cls-2" d="M101.94,137.45q-3.33,16.81-6.73,33.63Q87.14,127.25,79,83.45H70.6v26H59.19V72.94c0-.91,0-1.82,0-2.73,10.14,0,20.27,0,30.4,0,3.55,19.1,7,38.22,10.54,57.32C100.74,130.85,101.44,134.14,101.94,137.45Z" transform="translate(-1 -1.08)"/><path class="cls-2" d="M148,109.39H136.35V83.44h-9.51q-9.06,47.9-18.13,95.81H97.08q10.68-54.5,21.37-109c9.84-.08,19.68,0,29.53,0Q148,89.81,148,109.39Z" transform="translate(-1 -1.08)"/><path class="cls-2" d="M178.21,141q0,19.13,0,38.25H165.41V143.5c0-2.05.06-4.11,0-6.16-1.27-2.35-2.61-4.68-3.91-7H123.11c.76-4.25,1.55-8.49,2.32-12.74q20,0,40,0V97.23a35.27,35.27,0,0,0-.8-9.22,8.79,8.79,0,0,0-1.78-3.67,2.32,2.32,0,0,0-1.73-.9h-8.48V70.22A34.3,34.3,0,0,1,163,71.75a21.68,21.68,0,0,1,9.34,5.89,23.29,23.29,0,0,1,5.89,13.79c0,13.72,0,27.44,0,41.16-1.15-.09-2.43-.44-3.5.13,0,.09-.07.28-.09.37A28.52,28.52,0,0,1,178.21,141Z" transform="translate(-1 -1.08)"/><path class="cls-2" d="M42,130.81v34.8H53.17v14.18h-24V70.73h24V83.92c-3.71,0-7.43,0-11.14,0q0,17.07,0,34.13H79.66q1.41,6.38,2.8,12.75Z" transform="translate(-1 -1.08)"/><path class="cls-2" d="M70.6,137.36v41.89H59.19V137.36Z" transform="translate(-1 -1.08)"/><path class="cls-2" d="M148,137.36v41.89H136.35V137.36Z" transform="translate(-1 -1.08)"/><path class="cls-2" d="M93.14,179.25H74.78V165.12c5,0,9.92,0,14.88,0Z" transform="translate(-1 -1.08)"/><path class="cls-2" d="M132,179.25H113.58q1.5-7.06,3-14.13h15.13Q131.82,172.19,132,179.25Z" transform="translate(-1 -1.08)"/><path class="cls-2" d="M161.47,165.12v14.13h-8.85V165.12Z" transform="translate(-1 -1.08)"/><path class="cls-2" d="M19.7,209.11a.29.29,0,0,1-.24-.14.59.59,0,0,1-.1-.34V196.7a.62.62,0,0,1,.1-.35.29.29,0,0,1,.24-.14h5.79v2.92H21.43v2.07h4.06V204H21.43v2.19h4.06v2.92Z" transform="translate(-1 -1.08)"/><path class="cls-2" d="M28.94,208.63a.59.59,0,0,1-.1.34.3.3,0,0,1-.24.15H27.22A.3.3,0,0,1,27,209a.52.52,0,0,1-.1-.34V196.7a.55.55,0,0,1,.1-.35.29.29,0,0,1,.24-.14h1.91l4.13,8.52v-8a.55.55,0,0,1,.1-.35.29.29,0,0,1,.24-.14H35a.29.29,0,0,1,.24.14.55.55,0,0,1,.1.35v11.93a.52.52,0,0,1-.1.34.3.3,0,0,1-.24.15H33l-4.06-8.43Z" transform="translate(-1 -1.08)"/><path class="cls-2" d="M40.33,201.93h2.76a.3.3,0,0,1,.24.15.52.52,0,0,1,.1.34V206a4.16,4.16,0,0,1-.28,1.71,2.18,2.18,0,0,1-.76.94,2.66,2.66,0,0,1-1.09.4,9.59,9.59,0,0,1-2.51,0,2.56,2.56,0,0,1-1.07-.39,2.08,2.08,0,0,1-.74-.94A4.43,4.43,0,0,1,36.7,206v-6.6a4.46,4.46,0,0,1,.28-1.73,2.16,2.16,0,0,1,.74-.95,2.58,2.58,0,0,1,1.07-.4,9.59,9.59,0,0,1,2.51,0,2.56,2.56,0,0,1,1.09.42,2.28,2.28,0,0,1,.76.95,4.18,4.18,0,0,1,.28,1.72v.72a.53.53,0,0,1-.1.35.29.29,0,0,1-.24.14H41.71c-.23,0-.34-.16-.34-.49v-.29a.52.52,0,0,0-.12-.33.66.66,0,0,0-.29-.2,1.63,1.63,0,0,0-.42-.11,2.63,2.63,0,0,0-.49,0,3,3,0,0,0-.88.13.56.56,0,0,0-.4.55v5.72a.5.5,0,0,0,.12.33.66.66,0,0,0,.29.21,1.38,1.38,0,0,0,.4.1,2.47,2.47,0,0,0,.47,0,3.85,3.85,0,0,0,.48,0,1.51,1.51,0,0,0,.42-.1.63.63,0,0,0,.3-.21.55.55,0,0,0,.11-.33v-1h-1Z" transform="translate(-1 -1.08)"/><path class="cls-2" d="M46.79,196.36a.65.65,0,0,1,.1.34v11.93a.67.67,0,0,1-.1.34.32.32,0,0,1-.25.15H45.16a.3.3,0,0,1-.24-.15.59.59,0,0,1-.1-.34V196.7a.62.62,0,0,1,.1-.35.29.29,0,0,1,.24-.14h1.38A.31.31,0,0,1,46.79,196.36Z" transform="translate(-1 -1.08)"/><path class="cls-2" d="M50.34,208.63a.52.52,0,0,1-.1.34.3.3,0,0,1-.24.15H48.62a.3.3,0,0,1-.24-.15.59.59,0,0,1-.1-.34V196.7a.62.62,0,0,1,.1-.35.29.29,0,0,1,.24-.14h1.92l4.12,8.52v-8a.71.71,0,0,1,.1-.35.32.32,0,0,1,.25-.14h1.38a.29.29,0,0,1,.24.14.62.62,0,0,1,.1.35v11.93a.59.59,0,0,1-.1.34.3.3,0,0,1-.24.15h-2l-4-8.43Z" transform="translate(-1 -1.08)"/><path class="cls-2" d="M58.45,209.11a.29.29,0,0,1-.24-.14.59.59,0,0,1-.1-.34V196.7a.62.62,0,0,1,.1-.35.29.29,0,0,1,.24-.14h5.79v2.92H60.18v2.07h4.06V204H60.18v2.19h4.06v2.92Z" transform="translate(-1 -1.08)"/><path class="cls-2" d="M66,209.11a.29.29,0,0,1-.24-.14.59.59,0,0,1-.1-.34V196.7a.62.62,0,0,1,.1-.35.29.29,0,0,1,.24-.14h5.78v2.92h-4v2.07h4V204h-4v2.19h4v2.92Z" transform="translate(-1 -1.08)"/><path class="cls-2" d="M75.2,204.25v4.38a.59.59,0,0,1-.1.34.32.32,0,0,1-.25.15H73.47a.3.3,0,0,1-.24-.15.59.59,0,0,1-.1-.34V196.7a.62.62,0,0,1,.1-.35.29.29,0,0,1,.24-.14h3.59a2.63,2.63,0,0,1,1.37.36,3.41,3.41,0,0,1,1,1,4.69,4.69,0,0,1,.6,1.33,5.83,5.83,0,0,1,.2,1.5,4.65,4.65,0,0,1-.59,2.34A2.81,2.81,0,0,1,77.84,204l1.37,2.56,1.36,2.53H78.36A.4.4,0,0,1,78,209a1.42,1.42,0,0,1-.21-.33l-2.27-4.38Zm2.65-3.15a1.12,1.12,0,0,0,.28-.75,1.34,1.34,0,0,0-.29-.84,1,1,0,0,0-.85-.38h-1.8v2.32H77a1.05,1.05,0,0,0,.85-.35Z" transform="translate(-1 -1.08)"/><path class="cls-2" d="M83.46,196.36a.51.51,0,0,1,.1.34v11.93a.52.52,0,0,1-.1.34.3.3,0,0,1-.24.15H81.84a.3.3,0,0,1-.24-.15.59.59,0,0,1-.1-.34V196.7a.62.62,0,0,1,.1-.35.29.29,0,0,1,.24-.14h1.38A.28.28,0,0,1,83.46,196.36Z" transform="translate(-1 -1.08)"/><path class="cls-2" d="M87,208.63a.59.59,0,0,1-.1.34.3.3,0,0,1-.24.15H85.3a.3.3,0,0,1-.24-.15.52.52,0,0,1-.1-.34V196.7a.55.55,0,0,1,.1-.35.29.29,0,0,1,.24-.14h1.92l4.12,8.52v-8a.62.62,0,0,1,.1-.35.29.29,0,0,1,.24-.14h1.38a.29.29,0,0,1,.24.14.55.55,0,0,1,.1.35v11.93a.52.52,0,0,1-.1.34.3.3,0,0,1-.24.15h-2L87,200.69Z" transform="translate(-1 -1.08)"/><path class="cls-2" d="M98.41,201.93h2.76a.33.33,0,0,1,.25.15.67.67,0,0,1,.1.34V206a4.34,4.34,0,0,1-.29,1.71,2.18,2.18,0,0,1-.76.94,2.66,2.66,0,0,1-1.09.4,9.59,9.59,0,0,1-2.51,0,2.61,2.61,0,0,1-1.07-.39,2.08,2.08,0,0,1-.74-.94,4.43,4.43,0,0,1-.28-1.73v-6.6a4.46,4.46,0,0,1,.28-1.73,2.16,2.16,0,0,1,.74-.95,2.58,2.58,0,0,1,1.07-.4,9.59,9.59,0,0,1,2.51,0,2.51,2.51,0,0,1,1.09.42,2.21,2.21,0,0,1,.76.95,4.36,4.36,0,0,1,.29,1.72v.72a.68.68,0,0,1-.1.35.31.31,0,0,1-.25.14H99.79c-.23,0-.34-.16-.34-.49v-.29a.57.57,0,0,0-.11-.33.69.69,0,0,0-.3-.2,1.53,1.53,0,0,0-.42-.11,2.59,2.59,0,0,0-.48,0,2.89,2.89,0,0,0-.88.13.54.54,0,0,0-.4.55v5.72a.44.44,0,0,0,.11.33.66.66,0,0,0,.29.21,1.45,1.45,0,0,0,.41.1,2.36,2.36,0,0,0,.46,0,3.93,3.93,0,0,0,.49,0,1.6,1.6,0,0,0,.42-.1.66.66,0,0,0,.29-.21.44.44,0,0,0,.11-.33v-1h-1Z" transform="translate(-1 -1.08)"/><path class="cls-2" d="M109.56,204.39a.29.29,0,0,1,.24-.14h1.38a.29.29,0,0,1,.25.14.59.59,0,0,1,.1.34v.76a4.43,4.43,0,0,1-.29,1.69,3,3,0,0,1-.75,1.12,2.87,2.87,0,0,1-1,.62,3.85,3.85,0,0,1-2.42,0,2.83,2.83,0,0,1-1-.62,3,3,0,0,1-.74-1.12,4.64,4.64,0,0,1-.27-1.69v-5.63a4.64,4.64,0,0,1,.27-1.69,3,3,0,0,1,.74-1.12,2.83,2.83,0,0,1,1-.62,3.85,3.85,0,0,1,2.42,0,2.87,2.87,0,0,1,1,.62,3,3,0,0,1,.75,1.12,4.43,4.43,0,0,1,.29,1.69v.73a.59.59,0,0,1-.1.34.28.28,0,0,1-.25.15H109.8a.3.3,0,0,1-.24-.15.59.59,0,0,1-.1-.34v-.36a.92.92,0,0,0-.38-.83,1.4,1.4,0,0,0-1.65,0,.92.92,0,0,0-.38.83v4.87a.93.93,0,0,0,.38.84,1.46,1.46,0,0,0,1.65,0,.93.93,0,0,0,.38-.84v-.37A.59.59,0,0,1,109.56,204.39Z" transform="translate(-1 -1.08)"/><path class="cls-2" d="M119.19,207.59a2.19,2.19,0,0,1-1.77,1.43,7.8,7.8,0,0,1-2.49,0,2.17,2.17,0,0,1-1.75-1.43,4.63,4.63,0,0,1-.27-1.74V199.5a4.72,4.72,0,0,1,.27-1.75,2.52,2.52,0,0,1,.71-1,2.36,2.36,0,0,1,1-.45,8.64,8.64,0,0,1,1.24-.1,7.45,7.45,0,0,1,1.25.11,2.52,2.52,0,0,1,1,.45,2.37,2.37,0,0,1,.72,1,4.51,4.51,0,0,1,.28,1.74v6.36A4.48,4.48,0,0,1,119.19,207.59ZM117,199.23a2.54,2.54,0,0,0-.87-.12,2.35,2.35,0,0,0-.83.12.49.49,0,0,0-.36.51v5.87a.48.48,0,0,0,.36.5,3.13,3.13,0,0,0,1.69,0,.49.49,0,0,0,.37-.49v-5.87A.49.49,0,0,0,117,199.23Z" transform="translate(-1 -1.08)"/><path class="cls-2" d="M122.92,208.63a.52.52,0,0,1-.1.34.3.3,0,0,1-.24.15H121.2A.3.3,0,0,1,121,209a.59.59,0,0,1-.1-.34V196.7a.62.62,0,0,1,.1-.35.29.29,0,0,1,.24-.14h1.92l4.12,8.52v-8a.62.62,0,0,1,.1-.35.29.29,0,0,1,.24-.14H129a.31.31,0,0,1,.25.14.62.62,0,0,1,.1.35v11.93a.59.59,0,0,1-.1.34.3.3,0,0,1-.25.15h-2l-4.06-8.43Z" transform="translate(-1 -1.08)"/><path class="cls-2" d="M136.29,207.25a3,3,0,0,1-.71,1.06,2.6,2.6,0,0,1-1,.61,3.73,3.73,0,0,1-1.2.2,5,5,0,0,1-1.32-.2,4.28,4.28,0,0,1-1.23-.56l.59-2.38a3.5,3.5,0,0,0,.95.41,3.92,3.92,0,0,0,1,.15,1.53,1.53,0,0,0,.84-.22.8.8,0,0,0,.34-.71,1.24,1.24,0,0,0-.3-.82,4.9,4.9,0,0,0-.73-.71c-.29-.25-.61-.5-1-.76a6.28,6.28,0,0,1-1-.9,4.76,4.76,0,0,1-.73-1.18,4.65,4.65,0,0,1,0-3.15,2.88,2.88,0,0,1,.7-1.08,2.7,2.7,0,0,1,1-.6,3.48,3.48,0,0,1,1.2-.2,4.59,4.59,0,0,1,1.32.2,6.6,6.6,0,0,1,1.25.55l-.59,2.41a4.45,4.45,0,0,0-.94-.43,3.11,3.11,0,0,0-1-.15,1.46,1.46,0,0,0-.84.23.79.79,0,0,0-.35.72,1.2,1.2,0,0,0,.29.79,4.91,4.91,0,0,0,.74.7q.44.36,1,.75a5.39,5.39,0,0,1,.95.9,4.32,4.32,0,0,1,.74,1.19,4.21,4.21,0,0,1,.29,1.61A4,4,0,0,1,136.29,207.25Z" transform="translate(-1 -1.08)"/><path class="cls-2" d="M144,207a3.27,3.27,0,0,1-.75,1.25,2.72,2.72,0,0,1-1,.68,3.43,3.43,0,0,1-1.19.21,3.72,3.72,0,0,1-1.32-.24,2.53,2.53,0,0,1-1-.76,3.94,3.94,0,0,1-.68-1.43,8.83,8.83,0,0,1-.24-2.18V196.7a.62.62,0,0,1,.1-.35.29.29,0,0,1,.24-.14h1.38a.29.29,0,0,1,.24.14.55.55,0,0,1,.1.35v7.6a5.93,5.93,0,0,0,.06.84,1.75,1.75,0,0,0,.18.63,1.06,1.06,0,0,0,.36.4,1.11,1.11,0,0,0,.61.15,1,1,0,0,0,1-.54,3.76,3.76,0,0,0,.24-1.49v-7.6a.59.59,0,0,1,.1-.34.29.29,0,0,1,.24-.14H144a.32.32,0,0,1,.25.14.67.67,0,0,1,.1.34v8.43A5.35,5.35,0,0,1,144,207Z" transform="translate(-1 -1.08)"/><path class="cls-2" d="M150.37,206.19v2.92h-4.32a.29.29,0,0,1-.24-.14.59.59,0,0,1-.1-.34V196.7a.62.62,0,0,1,.1-.35.29.29,0,0,1,.24-.14h1.38a.29.29,0,0,1,.24.14.55.55,0,0,1,.1.35v9.5Z" transform="translate(-1 -1.08)"/><path class="cls-2" d="M153.82,208.63a.59.59,0,0,1-.1.34.3.3,0,0,1-.24.15H152.1a.3.3,0,0,1-.24-.15.52.52,0,0,1-.1-.34V199h-2.08a.29.29,0,0,1-.24-.14.62.62,0,0,1-.1-.35V196.7a.62.62,0,0,1,.1-.35.29.29,0,0,1,.24-.14h6.22a.29.29,0,0,1,.24.14.62.62,0,0,1,.1.35v1.77a.62.62,0,0,1-.1.35.29.29,0,0,1-.24.14h-2.07Z" transform="translate(-1 -1.08)"/><path class="cls-2" d="M163.73,209a.3.3,0,0,1-.25.15H162.1a.3.3,0,0,1-.24-.15.59.59,0,0,1-.1-.34v-3.41h-2.42v3.41a.52.52,0,0,1-.1.34.3.3,0,0,1-.24.15h-1.38a.3.3,0,0,1-.24-.15.59.59,0,0,1-.1-.34v-8.4a5.11,5.11,0,0,1,.28-1.78,3.74,3.74,0,0,1,.73-1.25,3.08,3.08,0,0,1,1-.75,3.2,3.2,0,0,1,2.43,0,2.9,2.9,0,0,1,1.05.75,3.79,3.79,0,0,1,.75,1.25,5.11,5.11,0,0,1,.28,1.78v8.4A.6.6,0,0,1,163.73,209Zm-2-6.67v-2a1,1,0,0,0-.39-.87,1.33,1.33,0,0,0-.84-.3,1.28,1.28,0,0,0-.81.29,1.05,1.05,0,0,0-.38.88v2Z" transform="translate(-1 -1.08)"/><path class="cls-2" d="M167.28,208.63a.52.52,0,0,1-.1.34.3.3,0,0,1-.24.15h-1.38a.3.3,0,0,1-.24-.15.59.59,0,0,1-.1-.34V196.7a.62.62,0,0,1,.1-.35.29.29,0,0,1,.24-.14h1.92l4.12,8.52v-8a.62.62,0,0,1,.1-.35.29.29,0,0,1,.24-.14h1.38a.32.32,0,0,1,.25.14.71.71,0,0,1,.1.35v11.93a.67.67,0,0,1-.1.34.32.32,0,0,1-.25.15h-2l-4.06-8.43Z" transform="translate(-1 -1.08)"/><path class="cls-2" d="M179.19,208.63a.52.52,0,0,1-.1.34.3.3,0,0,1-.24.15h-1.38a.3.3,0,0,1-.24-.15.52.52,0,0,1-.1-.34V199H175a.29.29,0,0,1-.24-.14.62.62,0,0,1-.1-.35V196.7a.62.62,0,0,1,.1-.35.29.29,0,0,1,.24-.14h6.22a.29.29,0,0,1,.24.14.62.62,0,0,1,.1.35v1.77a.62.62,0,0,1-.1.35.29.29,0,0,1-.24.14h-2.07Z" transform="translate(-1 -1.08)"/><path class="cls-2" d="M188.24,207.25a2.89,2.89,0,0,1-.7,1.06,2.6,2.6,0,0,1-1,.61,3.78,3.78,0,0,1-1.2.2,5,5,0,0,1-1.33-.2,4.22,4.22,0,0,1-1.22-.56l.58-2.38a3.79,3.79,0,0,0,1,.41,3.93,3.93,0,0,0,1,.15,1.52,1.52,0,0,0,.83-.22.78.78,0,0,0,.34-.71,1.28,1.28,0,0,0-.29-.82,5,5,0,0,0-.74-.71c-.29-.25-.61-.5-.95-.76a5.85,5.85,0,0,1-1-.9,4.48,4.48,0,0,1-.73-1.18,3.85,3.85,0,0,1-.3-1.57,4.44,4.44,0,0,1,.26-1.58,2.88,2.88,0,0,1,.7-1.08,2.7,2.7,0,0,1,1-.6,3.48,3.48,0,0,1,1.2-.2,4.54,4.54,0,0,1,1.32.2,6.6,6.6,0,0,1,1.25.55l-.59,2.41a4.45,4.45,0,0,0-.94-.43,3.11,3.11,0,0,0-1-.15,1.48,1.48,0,0,0-.84.23.79.79,0,0,0-.35.72,1.21,1.21,0,0,0,.3.79,4.84,4.84,0,0,0,.73.7q.44.36,1,.75a5.83,5.83,0,0,1,1,.9,4.53,4.53,0,0,1,.73,1.19,3.87,3.87,0,0,1,.29,1.61A3.83,3.83,0,0,1,188.24,207.25Z" transform="translate(-1 -1.08)"/><path class="cls-2" d="M52.87,53.91a.68.68,0,0,1-.53.26h-3a.66.66,0,0,1-.52-.26.91.91,0,0,1-.23-.61V47.23H43.34v6.08a.85.85,0,0,1-.22.61.68.68,0,0,1-.53.26h-3a.68.68,0,0,1-.52-.26.91.91,0,0,1-.23-.61v-15a7.8,7.8,0,0,1,.6-3.16,6.4,6.4,0,0,1,3.87-3.56,8,8,0,0,1,2.62-.43,8.16,8.16,0,0,1,2.64.43A6.56,6.56,0,0,1,50.86,33a6.89,6.89,0,0,1,1.61,2.24,7.59,7.59,0,0,1,.62,3.16v15A.92.92,0,0,1,52.87,53.91ZM48.59,42V38.47a1.72,1.72,0,0,0-.84-1.53,3.27,3.27,0,0,0-1.82-.55,3.23,3.23,0,0,0-1.76.52,1.71,1.71,0,0,0-.82,1.56V42Z" transform="translate(-1 -1.08)"/><path class="cls-2" d="M66.21,49v5.2H56.84a.65.65,0,0,1-.53-.26.92.92,0,0,1-.22-.6V32.06a.92.92,0,0,1,.22-.6.65.65,0,0,1,.53-.26h3a.64.64,0,0,1,.52.26.88.88,0,0,1,.23.6V49Z" transform="translate(-1 -1.08)"/><path class="cls-2" d="M73.71,54.18a.68.68,0,0,1-.53-.26.87.87,0,0,1-.22-.61V32.06a.83.83,0,0,1,.22-.6.65.65,0,0,1,.53-.26H86.26v5.2H77.45v3.68h8.81v5H77.45V49h8.81v5.2Z" transform="translate(-1 -1.08)"/><path class="cls-2" d="M103.28,53.91a.68.68,0,0,1-.53.26h-3a.68.68,0,0,1-.52-.26A.85.85,0,0,1,99,53.3V47.23H93.76v6.08a.91.91,0,0,1-.23.61.66.66,0,0,1-.52.26H90a.68.68,0,0,1-.53-.26.9.9,0,0,1-.22-.61v-15a7.63,7.63,0,0,1,.6-3.16,6.38,6.38,0,0,1,3.86-3.56,8,8,0,0,1,2.62-.43,8.16,8.16,0,0,1,2.64.43A6.48,6.48,0,0,1,101.27,33a6.61,6.61,0,0,1,1.61,2.24,7.28,7.28,0,0,1,.62,3.16v15A.92.92,0,0,1,103.28,53.91ZM99,42V38.47a1.73,1.73,0,0,0-.85-1.53,3.26,3.26,0,0,0-3.58,0,1.73,1.73,0,0,0-.82,1.56V42Z" transform="translate(-1 -1.08)"/><path class="cls-2" d="M116.32,53.91a1.66,1.66,0,0,1-.26-.61l-3.6-16.91-1.91,16.92a1.16,1.16,0,0,1-.24.61.64.64,0,0,1-.51.26h-3.86l2.52-22.12a1.1,1.1,0,0,1,.24-.6.62.62,0,0,1,.51-.26h6.07a.56.56,0,0,1,.49.26,1.89,1.89,0,0,1,.26.6l3.52,16.44,3.52-16.44a1.71,1.71,0,0,1,.27-.6.55.55,0,0,1,.48-.26h6.11a.62.62,0,0,1,.51.26,1.1,1.1,0,0,1,.24.6l2.51,22.12h-3.9a.63.63,0,0,1-.5-.26,1.26,1.26,0,0,1-.25-.61L126.63,36.4,123,53.31a1.51,1.51,0,0,1-.26.61.59.59,0,0,1-.49.26h-5.47A.58.58,0,0,1,116.32,53.91Z" transform="translate(-1 -1.08)"/><path class="cls-2" d="M149.64,53.91a.65.65,0,0,1-.52.26h-3a.66.66,0,0,1-.52-.26.91.91,0,0,1-.23-.61V47.23h-5.25v6.08a.85.85,0,0,1-.22.61.68.68,0,0,1-.53.26h-3a.68.68,0,0,1-.52-.26.91.91,0,0,1-.23-.61v-15a7.8,7.8,0,0,1,.6-3.16,6.41,6.41,0,0,1,3.86-3.56,8.29,8.29,0,0,1,5.27,0A6.56,6.56,0,0,1,147.64,33a6.89,6.89,0,0,1,1.61,2.24,7.59,7.59,0,0,1,.62,3.16v15A.88.88,0,0,1,149.64,53.91ZM145.37,42V38.47a1.72,1.72,0,0,0-.84-1.53,3.27,3.27,0,0,0-1.82-.55,3.23,3.23,0,0,0-1.76.52,1.71,1.71,0,0,0-.82,1.56V42Z" transform="translate(-1 -1.08)"/><path class="cls-2" d="M157.37,45.51v7.8a.91.91,0,0,1-.23.61.66.66,0,0,1-.52.26h-3a.68.68,0,0,1-.53-.26.9.9,0,0,1-.22-.61V32.06a.87.87,0,0,1,.22-.6.65.65,0,0,1,.53-.26h7.8a6.34,6.34,0,0,1,3,.65,6.63,6.63,0,0,1,2.14,1.69,7.34,7.34,0,0,1,1.29,2.36,8.63,8.63,0,0,1,.43,2.67A7.05,7.05,0,0,1,167,42.73a6,6,0,0,1-3.86,2.38l3,4.56q1.45,2.25,3,4.51h-4.8a1,1,0,0,1-.7-.28,3.74,3.74,0,0,1-.46-.59l-4.91-7.8Zm5.75-5.6a1.82,1.82,0,0,0,.62-1.34,2.06,2.06,0,0,0-.64-1.5,2.35,2.35,0,0,0-1.83-.67h-3.9v4.11h3.9a2.5,2.5,0,0,0,1.85-.6Z" transform="translate(-1 -1.08)"/></svg>
